<mxfile host="Electron" agent="Mozilla/5.0 (Macintosh; Intel Mac OS X 10_15_7) AppleWebKit/537.36 (KHTML, like Gecko) draw.io/24.7.17 Chrome/128.0.6613.36 Electron/32.0.1 Safari/537.36" version="24.7.17">
  <diagram name="Page-1" id="_gRGWOFDqU3hSQWJzQTY">
    <mxGraphModel dx="1012" dy="705" grid="1" gridSize="10" guides="1" tooltips="1" connect="1" arrows="1" fold="1" page="1" pageScale="1" pageWidth="850" pageHeight="1100" math="0" shadow="0">
      <root>
        <mxCell id="0" />
        <mxCell id="1" parent="0" />
        <mxCell id="WS_xZBE_3K333JoHeQVc-1" value="" style="group;fillColor=default;strokeColor=#b85450;" vertex="1" connectable="0" parent="1">
          <mxGeometry x="590" y="340" width="60" height="40" as="geometry" />
        </mxCell>
        <mxCell id="WS_xZBE_3K333JoHeQVc-2" value="" style="group;fillColor=#f8cecc;strokeColor=#b85450;" vertex="1" connectable="0" parent="WS_xZBE_3K333JoHeQVc-1">
          <mxGeometry y="10" width="60" height="10" as="geometry" />
        </mxCell>
        <mxCell id="WS_xZBE_3K333JoHeQVc-3" value="" style="rounded=1;whiteSpace=wrap;html=1;fillColor=#f8cecc;strokeColor=#b85450;" vertex="1" parent="WS_xZBE_3K333JoHeQVc-2">
          <mxGeometry width="10" height="10" as="geometry" />
        </mxCell>
        <mxCell id="WS_xZBE_3K333JoHeQVc-4" value="" style="rounded=1;whiteSpace=wrap;html=1;fillColor=#f8cecc;strokeColor=#b85450;" vertex="1" parent="WS_xZBE_3K333JoHeQVc-2">
          <mxGeometry x="10" width="10" height="10" as="geometry" />
        </mxCell>
        <mxCell id="WS_xZBE_3K333JoHeQVc-5" value="" style="rounded=1;whiteSpace=wrap;html=1;fillColor=#f8cecc;strokeColor=#b85450;" vertex="1" parent="WS_xZBE_3K333JoHeQVc-2">
          <mxGeometry x="20" width="10" height="10" as="geometry" />
        </mxCell>
        <mxCell id="WS_xZBE_3K333JoHeQVc-6" value="" style="rounded=1;whiteSpace=wrap;html=1;fillColor=#f8cecc;strokeColor=#b85450;" vertex="1" parent="WS_xZBE_3K333JoHeQVc-2">
          <mxGeometry x="30" width="10" height="10" as="geometry" />
        </mxCell>
        <mxCell id="WS_xZBE_3K333JoHeQVc-7" value="" style="rounded=1;whiteSpace=wrap;html=1;fillColor=#f8cecc;strokeColor=#b85450;" vertex="1" parent="WS_xZBE_3K333JoHeQVc-2">
          <mxGeometry x="40" width="10" height="10" as="geometry" />
        </mxCell>
        <mxCell id="WS_xZBE_3K333JoHeQVc-8" value="" style="rounded=1;whiteSpace=wrap;html=1;fillColor=#f8cecc;strokeColor=#b85450;" vertex="1" parent="WS_xZBE_3K333JoHeQVc-2">
          <mxGeometry x="50" width="10" height="10" as="geometry" />
        </mxCell>
        <mxCell id="WS_xZBE_3K333JoHeQVc-9" value="" style="group;fillColor=#f8cecc;strokeColor=#b85450;" vertex="1" connectable="0" parent="WS_xZBE_3K333JoHeQVc-1">
          <mxGeometry width="60" height="10" as="geometry" />
        </mxCell>
        <mxCell id="WS_xZBE_3K333JoHeQVc-10" value="" style="rounded=1;whiteSpace=wrap;html=1;fillColor=#f8cecc;strokeColor=#b85450;" vertex="1" parent="WS_xZBE_3K333JoHeQVc-9">
          <mxGeometry width="10" height="10" as="geometry" />
        </mxCell>
        <mxCell id="WS_xZBE_3K333JoHeQVc-11" value="" style="rounded=1;whiteSpace=wrap;html=1;fillColor=#f8cecc;strokeColor=#b85450;" vertex="1" parent="WS_xZBE_3K333JoHeQVc-9">
          <mxGeometry x="10" width="10" height="10" as="geometry" />
        </mxCell>
        <mxCell id="WS_xZBE_3K333JoHeQVc-12" value="" style="rounded=1;whiteSpace=wrap;html=1;fillColor=#f8cecc;strokeColor=#b85450;" vertex="1" parent="WS_xZBE_3K333JoHeQVc-9">
          <mxGeometry x="20" width="10" height="10" as="geometry" />
        </mxCell>
        <mxCell id="WS_xZBE_3K333JoHeQVc-13" value="" style="rounded=1;whiteSpace=wrap;html=1;fillColor=#f8cecc;strokeColor=#b85450;" vertex="1" parent="WS_xZBE_3K333JoHeQVc-9">
          <mxGeometry x="30" width="10" height="10" as="geometry" />
        </mxCell>
        <mxCell id="WS_xZBE_3K333JoHeQVc-14" value="" style="rounded=1;whiteSpace=wrap;html=1;fillColor=#f8cecc;strokeColor=#b85450;" vertex="1" parent="WS_xZBE_3K333JoHeQVc-9">
          <mxGeometry x="40" width="10" height="10" as="geometry" />
        </mxCell>
        <mxCell id="WS_xZBE_3K333JoHeQVc-15" value="" style="rounded=1;whiteSpace=wrap;html=1;fillColor=#f8cecc;strokeColor=#b85450;" vertex="1" parent="WS_xZBE_3K333JoHeQVc-9">
          <mxGeometry x="50" width="10" height="10" as="geometry" />
        </mxCell>
        <mxCell id="WS_xZBE_3K333JoHeQVc-16" value="" style="group;fillColor=none;strokeColor=#b85450;" vertex="1" connectable="0" parent="WS_xZBE_3K333JoHeQVc-1">
          <mxGeometry y="20" width="60" height="20" as="geometry" />
        </mxCell>
        <mxCell id="WS_xZBE_3K333JoHeQVc-17" value="" style="rounded=1;whiteSpace=wrap;html=1;fillColor=#f8cecc;strokeColor=#b85450;" vertex="1" parent="WS_xZBE_3K333JoHeQVc-16">
          <mxGeometry width="10" height="10" as="geometry" />
        </mxCell>
        <mxCell id="WS_xZBE_3K333JoHeQVc-18" value="" style="rounded=1;whiteSpace=wrap;html=1;fillColor=#f8cecc;strokeColor=#b85450;" vertex="1" parent="WS_xZBE_3K333JoHeQVc-16">
          <mxGeometry x="10" width="10" height="10" as="geometry" />
        </mxCell>
        <mxCell id="WS_xZBE_3K333JoHeQVc-19" value="" style="rounded=1;whiteSpace=wrap;html=1;fillColor=#f8cecc;strokeColor=#b85450;" vertex="1" parent="WS_xZBE_3K333JoHeQVc-16">
          <mxGeometry x="20" width="10" height="10" as="geometry" />
        </mxCell>
        <mxCell id="WS_xZBE_3K333JoHeQVc-20" value="" style="rounded=1;whiteSpace=wrap;html=1;fillColor=#f8cecc;strokeColor=#b85450;" vertex="1" parent="WS_xZBE_3K333JoHeQVc-16">
          <mxGeometry x="30" width="10" height="10" as="geometry" />
        </mxCell>
        <mxCell id="WS_xZBE_3K333JoHeQVc-21" value="" style="rounded=1;whiteSpace=wrap;html=1;fillColor=#f8cecc;strokeColor=#b85450;" vertex="1" parent="WS_xZBE_3K333JoHeQVc-16">
          <mxGeometry x="40" width="10" height="10" as="geometry" />
        </mxCell>
        <mxCell id="WS_xZBE_3K333JoHeQVc-22" value="" style="rounded=1;whiteSpace=wrap;html=1;fillColor=#f8cecc;strokeColor=#b85450;" vertex="1" parent="WS_xZBE_3K333JoHeQVc-16">
          <mxGeometry x="50" width="10" height="10" as="geometry" />
        </mxCell>
        <mxCell id="WS_xZBE_3K333JoHeQVc-23" value="&lt;font style=&quot;font-size: 14px;&quot;&gt;$$\mathbf{\theta}$$&lt;/font&gt;" style="text;html=1;align=center;verticalAlign=middle;whiteSpace=wrap;rounded=0;fillColor=default;" vertex="1" parent="WS_xZBE_3K333JoHeQVc-16">
          <mxGeometry x="10" y="-10" width="40" height="20" as="geometry" />
        </mxCell>
        <mxCell id="WS_xZBE_3K333JoHeQVc-24" value="" style="group;fillColor=#f8cecc;strokeColor=#b85450;" vertex="1" connectable="0" parent="WS_xZBE_3K333JoHeQVc-1">
          <mxGeometry y="30" width="60" height="10" as="geometry" />
        </mxCell>
        <mxCell id="WS_xZBE_3K333JoHeQVc-25" value="" style="rounded=1;whiteSpace=wrap;html=1;fillColor=#f8cecc;strokeColor=#b85450;" vertex="1" parent="WS_xZBE_3K333JoHeQVc-24">
          <mxGeometry width="10" height="10" as="geometry" />
        </mxCell>
        <mxCell id="WS_xZBE_3K333JoHeQVc-26" value="" style="rounded=1;whiteSpace=wrap;html=1;fillColor=#f8cecc;strokeColor=#b85450;" vertex="1" parent="WS_xZBE_3K333JoHeQVc-24">
          <mxGeometry x="10" width="10" height="10" as="geometry" />
        </mxCell>
        <mxCell id="WS_xZBE_3K333JoHeQVc-27" value="" style="rounded=1;whiteSpace=wrap;html=1;fillColor=#f8cecc;strokeColor=#b85450;" vertex="1" parent="WS_xZBE_3K333JoHeQVc-24">
          <mxGeometry x="20" width="10" height="10" as="geometry" />
        </mxCell>
        <mxCell id="WS_xZBE_3K333JoHeQVc-28" value="" style="rounded=1;whiteSpace=wrap;html=1;fillColor=#f8cecc;strokeColor=#b85450;" vertex="1" parent="WS_xZBE_3K333JoHeQVc-24">
          <mxGeometry x="30" width="10" height="10" as="geometry" />
        </mxCell>
        <mxCell id="WS_xZBE_3K333JoHeQVc-29" value="" style="rounded=1;whiteSpace=wrap;html=1;fillColor=#f8cecc;strokeColor=#b85450;" vertex="1" parent="WS_xZBE_3K333JoHeQVc-24">
          <mxGeometry x="40" width="10" height="10" as="geometry" />
        </mxCell>
        <mxCell id="WS_xZBE_3K333JoHeQVc-30" value="" style="rounded=1;whiteSpace=wrap;html=1;fillColor=#f8cecc;strokeColor=#b85450;" vertex="1" parent="WS_xZBE_3K333JoHeQVc-24">
          <mxGeometry x="50" width="10" height="10" as="geometry" />
        </mxCell>
        <mxCell id="WS_xZBE_3K333JoHeQVc-31" value="Weight" style="text;html=1;align=center;verticalAlign=middle;whiteSpace=wrap;rounded=0;" vertex="1" parent="1">
          <mxGeometry x="590" y="381" width="60" height="20" as="geometry" />
        </mxCell>
        <mxCell id="WS_xZBE_3K333JoHeQVc-32" value="" style="rounded=1;whiteSpace=wrap;html=1;fillColor=#d5e8d4;strokeColor=#82b366;" vertex="1" parent="1">
          <mxGeometry x="497" y="275.62" width="10" height="10" as="geometry" />
        </mxCell>
        <mxCell id="WS_xZBE_3K333JoHeQVc-33" value="" style="rounded=1;whiteSpace=wrap;html=1;fillColor=#d5e8d4;strokeColor=#82b366;" vertex="1" parent="1">
          <mxGeometry x="507" y="275.62" width="10" height="10" as="geometry" />
        </mxCell>
        <mxCell id="WS_xZBE_3K333JoHeQVc-34" value="" style="rounded=1;whiteSpace=wrap;html=1;fillColor=#d5e8d4;strokeColor=#82b366;" vertex="1" parent="1">
          <mxGeometry x="517" y="275.62" width="10" height="10" as="geometry" />
        </mxCell>
      </root>
    </mxGraphModel>
  </diagram>
</mxfile>
